{"title":"Dark Side of the Rainbow 720p x264 .wav audio track","uid":8360998,"size":5774588673,"categoryP":"video","categoryS":"hd___movies","magnet":"?xt=urn:btih:51eeb6c74712aeb155f4806cccdb009aca878efa&amp;dn=Dark+Side+of+the+Rainbow+720p+x264+.wav+audio+track&amp;tr=udp%3A%2F%2Ftracker.openbittorrent.com%3A80&amp;tr=udp%3A%2F%2Fopen.demonii.com%3A1337&amp;tr=udp%3A%2F%2Ftracker.coppersurfer.tk%3A6969&amp;tr=udp%3A%2F%2Fexodus.desync.com%3A6969","seeders":0,"leechers":1,"uploader":"boladoo","files":5,"time":1365624456,"description":"Pink Floyd's 1973 album Dark Side of the Moon .wav audio track in synchrony with the movie The Wizard of Oz (1939) in 720p resolution, a.k.a Dark Side of the Rainbow (or Dark Side of Oz).\nThe movie also contains the original audio track (English) and English subtitles, in case you want to follow the dialogues while listening to the Dark Side of the Moon.\n\nPLEASE SEED!!! (and some feedback would be nice too)\n\nFor further reference, please visit:  &lt;a href=&quot;\nhttp://en.wikipedia.org/wiki/Dark_Side_of_the_Rainbow&quot; rel=&quot;nofollow&quot; target=&quot;_NEW&quot;&gt;\nhttp://en.wikipedia.org/wiki/Dark_Side_of_the_Rainbow&lt;/a&gt;\n\nMOVIE CREDITS: The.Wizard.Of.Oz.1939.720p.BluRay.x264-SiNNERS\n\nDownload .torrent: http://thepiratebay.se/torrent/6093655/The.Wizard.Of.Oz.1939.720p.BluRay.x264-SiNNERS\n \n  The.Wizard.Of.Oz.1939.720p.BluRay.x264-SiNNERS\n\n         Format : mkv\n        Runtime : 102 min\n       Director : Victor Fleming\n          Genre : Adventure | Family | Fantasy | Musical\n          Video : 992*720 | x264 | 5511 kbps\n          Audio : English | AC3 5.1 | 640 kbps\n           Subs : English\n         Rating : 8.3/10 (108,249 votes) Top 250 #122\n\nAUDIO TRACK:\n\nCreated using qaac 2.18, CoreAudioToolbox 7.9.8.2\nEdited with SoX v14.4.1\n\nChannels       : 2\nSample Rate    : 44100\nPrecision      : 16-bit\nDuration       : 01:41:48.19 = 269371322 samples = 458114 CDDA sectors\nFile Size      : 1.08G\nBit Rate       : 1.41M\nSample Encoding: 16-bit Signed Integer PCM","torrent":{"xt":"urn:btih:51eeb6c74712aeb155f4806cccdb009aca878efa","amp;dn":"Dark+Side+of+the+Rainbow+720p+x264+.wav+audio+track","amp;tr":["udp%3A%2F%2Ftracker.openbittorrent.com%3A80","udp%3A%2F%2Fopen.demonii.com%3A1337","udp%3A%2F%2Ftracker.coppersurfer.tk%3A6969","udp%3A%2F%2Fexodus.desync.com%3A6969"],"infoHash":"51eeb6c74712aeb155f4806cccdb009aca878efa","infoHashBuffer":{"type":"Buffer","data":[81,238,182,199,71,18,174,177,85,244,128,108,204,219,0,154,202,135,142,250]},"announce":[],"urlList":[]}}